<svg width="40" height="40" viewBox="0 0 40 40" fill="none" xmlns="http://www.w3.org/2000/svg">
<path d="M24.5333 14.6499L17.3833 21.8166L14.6333 19.0666C14.4838 18.8921 14.3 18.7504 14.0932 18.6504C13.8864 18.5503 13.6612 18.4941 13.4317 18.4853C13.2021 18.4764 12.9733 18.5151 12.7594 18.5989C12.5455 18.6826 12.3513 18.8097 12.1888 18.9722C12.0264 19.1346 11.8993 19.3288 11.8155 19.5427C11.7317 19.7566 11.6931 19.9855 11.7019 20.215C11.7108 20.4445 11.767 20.6698 11.867 20.8765C11.9671 21.0833 12.1088 21.2672 12.2833 21.4166L16.1999 25.3499C16.3557 25.5044 16.5404 25.6266 16.7434 25.7095C16.9465 25.7925 17.1639 25.8345 17.3833 25.8333C17.8205 25.8314 18.2395 25.6578 18.5499 25.3499L26.8833 17.0166C27.0395 16.8616 27.1635 16.6773 27.2481 16.4742C27.3327 16.2711 27.3763 16.0533 27.3763 15.8333C27.3763 15.6132 27.3327 15.3954 27.2481 15.1923C27.1635 14.9892 27.0395 14.8049 26.8833 14.6499C26.571 14.3395 26.1486 14.1653 25.7083 14.1653C25.268 14.1653 24.8455 14.3395 24.5333 14.6499ZM19.9999 3.33325C16.7036 3.33325 13.4812 4.31073 10.7404 6.14209C7.9996 7.97345 5.86339 10.5764 4.60193 13.6219C3.34047 16.6673 3.01042 20.0184 3.6535 23.2514C4.29659 26.4844 5.88394 29.4542 8.21481 31.785C10.5457 34.1159 13.5154 35.7033 16.7484 36.3463C19.9814 36.9894 23.3325 36.6594 26.378 35.3979C29.4234 34.1365 32.0264 32.0002 33.8577 29.2594C35.6891 26.5186 36.6666 23.2963 36.6666 19.9999C36.6666 17.8112 36.2355 15.644 35.3979 13.6219C34.5603 11.5998 33.3327 9.76245 31.785 8.21481C30.2374 6.66716 28.4001 5.4395 26.378 4.60193C24.3559 3.76435 22.1886 3.33325 19.9999 3.33325ZM19.9999 33.3333C17.3628 33.3333 14.785 32.5513 12.5923 31.0862C10.3997 29.6211 8.6907 27.5387 7.68153 25.1024C6.67236 22.666 6.40832 19.9851 6.92279 17.3987C7.43726 14.8123 8.70714 12.4365 10.5718 10.5718C12.4365 8.70713 14.8123 7.43725 17.3987 6.92278C19.9851 6.40831 22.666 6.67236 25.1024 7.68153C27.5387 8.69069 29.6211 10.3997 31.0862 12.5923C32.5513 14.785 33.3333 17.3628 33.3333 19.9999C33.3333 23.5361 31.9285 26.9275 29.428 29.428C26.9275 31.9285 23.5361 33.3333 19.9999 33.3333Z" fill="#00C700"/>
</svg>
