<svg width="30" height="30" viewBox="0 0 30 30" fill="none" xmlns="http://www.w3.org/2000/svg">
<g clip-path="url(#clip0_503_668)">
<path d="M27.4969 10.2422H17.4422V7.22346C17.4422 5.84534 16.3219 4.72034 14.9391 4.72034L2.50313 4.71565C1.125 4.71096 0 5.83596 0 7.21409V15.1782C0 16.5563 1.12031 17.6813 2.50313 17.6813H2.96719V19.0875C2.96719 19.336 3.10313 19.561 3.32344 19.6782C3.43122 19.736 3.55268 19.7634 3.67485 19.7577C3.79702 19.7519 3.91534 19.7131 4.01719 19.6453L6.95625 17.6813H12.5625V20.7047C12.5625 22.0828 13.6828 23.2031 15.0609 23.2031H23.0484L25.9875 25.1719C26.0893 25.2396 26.2077 25.2784 26.3298 25.2842C26.452 25.29 26.5735 25.2625 26.6812 25.2047C26.9016 25.0875 27.0375 24.8625 27.0375 24.6141V23.2078H27.5016C28.8844 23.2078 30.0047 22.0875 30.0094 20.7094V12.75C30 11.3672 28.875 10.2422 27.4969 10.2422ZM13.2516 16.336H6.74531C6.61406 16.336 6.48281 16.3735 6.37031 16.4485L4.30781 17.8266V17.0063C4.30781 16.636 4.00781 16.336 3.6375 16.336H2.50313C1.86563 16.336 1.34531 15.8157 1.34531 15.1782V7.21409C1.34531 6.57659 1.86563 6.05628 2.50313 6.05628L14.9391 6.06096C15.5766 6.06096 16.0969 6.58128 16.0969 7.21878V15.1782C16.0969 15.8157 15.5766 16.336 14.9391 16.336H13.2516ZM28.6547 20.7094C28.6547 21.3469 28.1344 21.8672 27.4922 21.8672H26.3578C25.9875 21.8672 25.6875 22.1672 25.6875 22.5375V23.3578L23.625 21.975C23.5125 21.9 23.3859 21.8625 23.25 21.8625H15.0562C14.4187 21.8625 13.8984 21.3422 13.8984 20.7047V17.6813H14.9344C16.3125 17.6813 17.4375 16.561 17.4375 15.1782V11.5782H27.4922C27.8005 11.5782 28.0962 11.7006 28.3142 11.9186C28.5322 12.1367 28.6547 12.4323 28.6547 12.7407V20.7094Z" fill="#878787"/>
<path d="M10.95 13.1062C10.9202 13.0801 10.885 13.0609 10.8469 13.05C10.8047 13.0359 10.7438 13.0125 10.6688 12.9797C10.5938 12.9469 10.5047 12.9 10.3922 12.8344C10.2844 12.7687 10.1578 12.675 10.0172 12.5531C10.111 12.4594 10.1953 12.3516 10.2656 12.2297C10.3406 12.1078 10.4016 11.9719 10.4485 11.8219C10.5 11.6719 10.5375 11.5125 10.561 11.3391C10.5891 11.1656 10.5985 10.9781 10.5985 10.7812C10.5985 10.3969 10.5516 10.0687 10.4625 9.7875C10.3735 9.50625 10.2422 9.27656 10.0641 9.09375C9.89065 8.91094 9.67502 8.775 9.4219 8.68594C9.16877 8.59688 8.87346 8.55469 8.54534 8.55469C8.19377 8.55469 7.8844 8.60625 7.6219 8.71406C7.35471 8.82188 7.1344 8.97656 6.95159 9.17344C6.77346 9.375 6.63752 9.61406 6.54377 9.9C6.45471 10.1859 6.40784 10.5094 6.40784 10.8656C6.40784 11.2594 6.45002 11.6016 6.5344 11.8875C6.61877 12.1734 6.75002 12.4078 6.91877 12.5953C7.08752 12.7781 7.30315 12.9141 7.56096 13.0031C7.81877 13.0922 8.11877 13.1344 8.46096 13.1344C8.64377 13.1344 8.80784 13.1156 8.95784 13.0828C9.10784 13.0453 9.2344 13.0078 9.33752 12.9562C9.46409 13.1016 9.60002 13.2281 9.74534 13.3359C9.89065 13.4484 10.036 13.5422 10.1766 13.6172C10.3172 13.6922 10.4485 13.7531 10.5703 13.7953C10.6922 13.8375 10.7906 13.8562 10.8656 13.8562C10.8844 13.8562 10.9031 13.8516 10.9172 13.8422C10.9313 13.8328 10.95 13.8188 10.9594 13.7906C10.9756 13.7532 10.9866 13.7138 10.9922 13.6734C11.0016 13.6219 11.0063 13.5563 11.0063 13.4766C11.0063 13.3734 11.0016 13.2937 10.9875 13.2375C10.9735 13.1812 10.9781 13.1297 10.95 13.1062ZM9.60471 11.4328C9.56721 11.6203 9.50159 11.7891 9.41252 11.9297C9.32346 12.0703 9.20159 12.1828 9.05159 12.2625C8.90159 12.3469 8.71877 12.3844 8.49846 12.3844C8.27815 12.3844 8.09534 12.3469 7.95002 12.2766C7.80471 12.2063 7.68752 12.0984 7.60315 11.9625C7.51012 11.8105 7.448 11.6417 7.42034 11.4656C7.38076 11.2492 7.36192 11.0294 7.36409 10.8094C7.36409 10.6031 7.38284 10.4109 7.42034 10.2234C7.45784 10.0359 7.52346 9.87656 7.61252 9.73594C7.70159 9.59531 7.82346 9.4875 7.97346 9.40312C8.12346 9.31875 8.30627 9.28125 8.52659 9.28125C8.7469 9.28125 8.92971 9.31875 9.07502 9.39375C9.22034 9.46875 9.33752 9.57187 9.42659 9.70781C9.51565 9.84375 9.57659 10.0078 9.61409 10.1953C9.65159 10.3828 9.67034 10.5938 9.67034 10.8234C9.66565 11.0391 9.64221 11.2406 9.60471 11.4328ZM21.9281 14.5219C21.9177 14.4831 21.9002 14.4466 21.8766 14.4141C21.8578 14.3859 21.8203 14.3672 21.7735 14.3531C21.7093 14.3361 21.643 14.3282 21.5766 14.3297C21.4922 14.325 21.3797 14.325 21.2344 14.325C21.1125 14.325 21.0141 14.325 20.9391 14.3297C20.8641 14.3344 20.8078 14.3438 20.7656 14.3531C20.7235 14.3672 20.6906 14.3859 20.6719 14.4094C20.6531 14.4328 20.6344 14.4656 20.6203 14.5078L19.1766 18.6609C19.1485 18.7453 19.1297 18.8109 19.1203 18.8625C19.111 18.9141 19.1203 18.9516 19.1438 18.9797C19.1672 19.0078 19.2094 19.0266 19.275 19.0312C19.336 19.0406 19.425 19.0406 19.5375 19.0406C19.6406 19.0406 19.725 19.0359 19.7906 19.0312C19.8563 19.0266 19.9031 19.0172 19.9406 19.0031C19.9735 18.9891 20.0016 18.9703 20.0156 18.9469C20.0318 18.9205 20.0444 18.8922 20.0531 18.8625L20.3485 17.9484H22.1063L22.4203 18.8906C22.4297 18.9234 22.4438 18.9469 22.4578 18.9656C22.4719 18.9844 22.4953 18.9984 22.5328 19.0125C22.5703 19.0219 22.6219 19.0313 22.6922 19.0359C22.7625 19.0406 22.8563 19.0406 22.9781 19.0406C23.0953 19.0406 23.1891 19.0359 23.2547 19.0312C23.3203 19.0266 23.3672 19.0078 23.3953 18.9844C23.4235 18.9609 23.4328 18.9234 23.4235 18.8719C23.411 18.8016 23.3922 18.7325 23.3672 18.6656L21.9281 14.5219ZM20.5641 17.2266L21.225 15.2391H21.2297L21.8906 17.2266H20.5641Z" fill="#878787"/>
</g>
<defs>
<clipPath id="clip0_503_668">
<rect width="30" height="30" fill="white"/>
</clipPath>
</defs>
</svg>
