<svg width="16" height="16" viewBox="0 0 16 16" fill="none" xmlns="http://www.w3.org/2000/svg">
<path d="M6 6.66667H4.66667V8H6V6.66667ZM8.66667 6.66667H7.33333V8H8.66667V6.66667ZM11.3333 6.66667H10V8H11.3333V6.66667ZM12.6667 2.00001H12V0.666672H10.6667V2.00001H5.33333V0.666672H4V2.00001H3.33333C2.59333 2.00001 2 2.6 2 3.33334V12.6667C2 13.0203 2.14048 13.3594 2.39052 13.6095C2.64057 13.8595 2.97971 14 3.33333 14H12.6667C13.0203 14 13.3594 13.8595 13.6095 13.6095C13.8595 13.3594 14 13.0203 14 12.6667V3.33334C14 2.97972 13.8595 2.64058 13.6095 2.39053C13.3594 2.14048 13.0203 2.00001 12.6667 2.00001ZM12.6667 12.6667H3.33333V5.33334H12.6667V12.6667Z" fill="#878787"/>
</svg>
