<svg width="62" height="64" viewBox="0 0 62 64" fill="none" xmlns="http://www.w3.org/2000/svg">
<path d="M52.0987 27.0022C52.5292 27.4363 52.8981 28.0253 53.2055 28.7693C53.513 29.5134 53.6667 30.1954 53.6667 30.8155V57.6012C53.6667 58.2212 53.4515 58.7483 53.0211 59.1823C52.5906 59.6163 52.068 59.8333 51.4531 59.8333H20.4635C19.8487 59.8333 19.326 59.6163 18.8956 59.1823C18.4652 58.7483 18.25 58.2212 18.25 57.6012V20.3988C18.25 19.7788 18.4652 19.2517 18.8956 18.8177C19.326 18.3837 19.8487 18.1667 20.4635 18.1667H41.1233C41.7381 18.1667 42.4145 18.3217 43.1523 18.6317C43.8902 18.9417 44.4743 19.3137 44.9047 19.7478L52.0987 27.0022ZM41.8611 21.3289V30.0714H50.5308C50.3771 29.6219 50.208 29.3041 50.0236 29.1181L42.8065 21.8404C42.622 21.6544 42.3069 21.4839 41.8611 21.3289ZM50.7153 56.8571V33.0476H41.1233C40.5084 33.0476 39.9858 32.8306 39.5553 32.3966C39.1249 31.9625 38.9097 31.4355 38.9097 30.8155V21.1428H21.2014V56.8571H50.7153ZM27.1042 36.7678C27.1042 36.5508 27.1733 36.3726 27.3117 36.2331C27.45 36.0936 27.6268 36.0238 27.842 36.0238H44.0747C44.2899 36.0238 44.4666 36.0936 44.605 36.2331C44.7433 36.3726 44.8125 36.5508 44.8125 36.7678V38.2559C44.8125 38.473 44.7433 38.6512 44.605 38.7907C44.4666 38.9302 44.2899 39 44.0747 39H27.842C27.6268 39 27.45 38.9302 27.3117 38.7907C27.1733 38.6512 27.1042 38.473 27.1042 38.2559V36.7678ZM44.0747 41.9762C44.2899 41.9762 44.4666 42.0459 44.605 42.1854C44.7433 42.325 44.8125 42.5032 44.8125 42.7202V44.2083C44.8125 44.4253 44.7433 44.6036 44.605 44.7431C44.4666 44.8826 44.2899 44.9524 44.0747 44.9524H27.842C27.6268 44.9524 27.45 44.8826 27.3117 44.7431C27.1733 44.6036 27.1042 44.4253 27.1042 44.2083V42.7202C27.1042 42.5032 27.1733 42.325 27.3117 42.1854C27.45 42.0459 27.6268 41.9762 27.842 41.9762H44.0747ZM44.0747 47.9286C44.2899 47.9286 44.4666 47.9983 44.605 48.1378C44.7433 48.2773 44.8125 48.4556 44.8125 48.6726V50.1607C44.8125 50.3777 44.7433 50.556 44.605 50.6955C44.4666 50.835 44.2899 50.9048 44.0747 50.9048H27.842C27.6268 50.9048 27.45 50.835 27.3117 50.6955C27.1733 50.556 27.1042 50.3777 27.1042 50.1607V48.6726C27.1042 48.4556 27.1733 48.2773 27.3117 48.1378C27.45 47.9983 27.6268 47.9286 27.842 47.9286H44.0747Z" fill="#3585DB"/>
<g clip-path="url(#clip0_169_207)">
<path d="M61.7628 48.2704H61.6582V48.1657H61.7001V48.2285H61.7628V48.2704Z" fill="#3585DB"/>
<path d="M61.6723 47.8379H61.2119V47.6426H61.6723V47.8379ZM61.2538 47.796H61.6304V47.6844H61.2538V47.796ZM61.3375 48.0053H61.2119V47.8797H61.3375V48.0053ZM61.2538 47.9634H61.2956V47.9216H61.2538V47.9634ZM61.5049 48.0053H61.3793V47.8797H61.5049V48.0053ZM61.4212 47.9634H61.463V47.9216H61.4212V47.9634ZM61.6723 48.0053H61.5467V47.8797H61.6723V48.0053ZM61.5886 47.9634H61.6304V47.9216H61.5886V47.9634ZM61.3375 48.1448H61.2119V48.0193H61.3375V48.1448ZM61.2538 48.103H61.2956V48.0611H61.2538V48.103ZM61.5049 48.1448H61.3793V48.0193H61.5049V48.1448ZM61.4212 48.103H61.463V48.0611H61.4212V48.103Z" fill="#3585DB"/>
<path d="M61.5887 48.0862H61.5469V48.0193H61.6515V48.0611H61.5887V48.0862Z" fill="#3585DB"/>
<path d="M61.5001 48.2285H61.1421V47.5728H61.742V48.0424H61.7001V47.6147H61.1839V48.1867H61.5001V48.2285Z" fill="#3585DB"/>
<path d="M61.6932 48.3959C61.6614 48.3959 61.6304 48.3865 61.604 48.3689C61.5776 48.3513 61.5571 48.3262 61.5449 48.2969C61.5328 48.2676 61.5296 48.2353 61.5358 48.2042C61.542 48.1731 61.5573 48.1445 61.5797 48.122C61.6021 48.0996 61.6307 48.0843 61.6619 48.0781C61.693 48.072 61.7252 48.0751 61.7545 48.0873C61.7839 48.0994 61.8089 48.12 61.8265 48.1464C61.8442 48.1727 61.8536 48.2038 61.8536 48.2355C61.8535 48.278 61.8366 48.3188 61.8065 48.3489C61.7764 48.3789 61.7357 48.3959 61.6932 48.3959ZM61.6932 48.1169C61.6697 48.1169 61.6468 48.1239 61.6273 48.1369C61.6078 48.1499 61.5926 48.1684 61.5836 48.1901C61.5746 48.2118 61.5723 48.2356 61.5768 48.2586C61.5814 48.2816 61.5927 48.3028 61.6093 48.3193C61.6259 48.3359 61.647 48.3472 61.67 48.3518C61.693 48.3564 61.7169 48.354 61.7385 48.345C61.7602 48.3361 61.7787 48.3209 61.7917 48.3014C61.8048 48.2819 61.8117 48.2589 61.8117 48.2355C61.8117 48.204 61.7992 48.1739 61.777 48.1516C61.7548 48.1294 61.7246 48.1169 61.6932 48.1169Z" fill="#3585DB"/>
</g>
<path fill-rule="evenodd" clip-rule="evenodd" d="M12.5 0C12.9736 0 13.4278 0.188137 13.7627 0.523024C14.0976 0.85791 14.2857 1.31211 14.2857 1.78571V10.7143H23.2143C23.6879 10.7143 24.1421 10.9024 24.477 11.2373C24.8119 11.5722 25 12.0264 25 12.5C25 12.9736 24.8119 13.4278 24.477 13.7627C24.1421 14.0976 23.6879 14.2857 23.2143 14.2857H14.2857V23.2143C14.2857 23.6879 14.0976 24.1421 13.7627 24.477C13.4278 24.8119 12.9736 25 12.5 25C12.0264 25 11.5722 24.8119 11.2373 24.477C10.9024 24.1421 10.7143 23.6879 10.7143 23.2143V14.2857H1.78571C1.31211 14.2857 0.85791 14.0976 0.523024 13.7627C0.188137 13.4278 0 12.9736 0 12.5C0 12.0264 0.188137 11.5722 0.523024 11.2373C0.85791 10.9024 1.31211 10.7143 1.78571 10.7143H10.7143V1.78571C10.7143 1.31211 10.9024 0.85791 11.2373 0.523024C11.5722 0.188137 12.0264 0 12.5 0Z" fill="#3585DB"/>
<defs>
<clipPath id="clip0_169_207">
<rect width="0.892857" height="0.892857" fill="white" transform="translate(61.0513 47.5379)"/>
</clipPath>
</defs>
</svg>
