<svg width="106" height="116" viewBox="0 0 106 116" fill="none" xmlns="http://www.w3.org/2000/svg">
<path fill-rule="evenodd" clip-rule="evenodd" d="M20 40C25.3043 40 30.3914 37.8929 34.1421 34.1421C37.8929 30.3914 40 25.3043 40 20C40 14.6957 37.8929 9.60859 34.1421 5.85786C30.3914 2.10714 25.3043 0 20 0C14.6957 0 9.60859 2.10714 5.85786 5.85786C2.10714 9.60859 0 14.6957 0 20C0 25.3043 2.10714 30.3914 5.85786 34.1421C9.60859 37.8929 14.6957 40 20 40ZM29.2675 16.7675C29.7229 16.296 29.9749 15.6645 29.9692 15.009C29.9635 14.3535 29.7006 13.7265 29.237 13.263C28.7735 12.7994 28.1465 12.5365 27.491 12.5308C26.8355 12.5251 26.204 12.7771 25.7325 13.2325L17.5 21.465L14.2675 18.2325C13.796 17.7771 13.1645 17.5251 12.509 17.5308C11.8535 17.5365 11.2265 17.7994 10.763 18.263C10.2994 18.7265 10.0365 19.3535 10.0308 20.009C10.0251 20.6645 10.2771 21.296 10.7325 21.7675L15.7325 26.7675C16.2013 27.2362 16.8371 27.4995 17.5 27.4995C18.1629 27.4995 18.7987 27.2362 19.2675 26.7675L29.2675 16.7675Z" fill="#3585DB"/>
<path d="M86.5935 43.4844C87.4371 44.3351 88.1602 45.4896 88.7628 46.9479C89.3654 48.4063 89.6667 49.7431 89.6667 50.9584V103.458C89.6667 104.674 89.2449 105.707 88.4013 106.557C87.5577 107.408 86.5333 107.833 85.3281 107.833H24.5885C23.3834 107.833 22.359 107.408 21.5154 106.557C20.6718 105.707 20.25 104.674 20.25 103.458V30.5417C20.25 29.3264 20.6718 28.2934 21.5154 27.4427C22.359 26.592 23.3834 26.1667 24.5885 26.1667H65.0816C66.2868 26.1667 67.6124 26.4705 69.0586 27.0781C70.5048 27.6858 71.6497 28.415 72.4933 29.2656L86.5935 43.4844ZM66.5278 32.3646V49.5H83.5204C83.2191 48.6189 82.8877 47.9961 82.5262 47.6315L68.3807 33.3672C68.0192 33.0026 67.4015 32.6684 66.5278 32.3646ZM83.882 102V55.3334H65.0816C63.8764 55.3334 62.8521 54.908 62.0085 54.0573C61.1649 53.2066 60.7431 52.1736 60.7431 50.9584V32H26.0347V102H83.882ZM37.6042 62.625C37.6042 62.1997 37.7397 61.8503 38.0109 61.5768C38.2821 61.3034 38.6285 61.1667 39.0503 61.1667H70.8663C71.2881 61.1667 71.6346 61.3034 71.9058 61.5768C72.1769 61.8503 72.3125 62.1997 72.3125 62.625V65.5417C72.3125 65.967 72.1769 66.3164 71.9058 66.5899C71.6346 66.8633 71.2881 67 70.8663 67H39.0503C38.6285 67 38.2821 66.8633 38.0109 66.5899C37.7397 66.3164 37.6042 65.967 37.6042 65.5417V62.625ZM70.8663 72.8334C71.2881 72.8334 71.6346 72.9701 71.9058 73.2435C72.1769 73.5169 72.3125 73.8663 72.3125 74.2917V77.2084C72.3125 77.6337 72.1769 77.9831 71.9058 78.2565C71.6346 78.53 71.2881 78.6667 70.8663 78.6667H39.0503C38.6285 78.6667 38.2821 78.53 38.0109 78.2565C37.7397 77.9831 37.6042 77.6337 37.6042 77.2084V74.2917C37.6042 73.8663 37.7397 73.5169 38.0109 73.2435C38.2821 72.9701 38.6285 72.8334 39.0503 72.8334H70.8663ZM70.8663 84.5C71.2881 84.5 71.6346 84.6367 71.9058 84.9102C72.1769 85.1836 72.3125 85.533 72.3125 85.9584V88.875C72.3125 89.3004 72.1769 89.6498 71.9058 89.9232C71.6346 90.1966 71.2881 90.3334 70.8663 90.3334H39.0503C38.6285 90.3334 38.2821 90.1966 38.0109 89.9232C37.7397 89.6498 37.6042 89.3004 37.6042 88.875V85.9584C37.6042 85.533 37.7397 85.1836 38.0109 84.9102C38.2821 84.6367 38.6285 84.5 39.0503 84.5H70.8663Z" fill="#3585DB"/>
<g clip-path="url(#clip0_161_309)">
<path d="M105.535 85.1699H105.33V84.9648H105.412V85.0879H105.535V85.1699Z" fill="#3585DB"/>
<path d="M105.357 84.3223H104.455V83.9395H105.357V84.3223ZM104.537 84.2402H105.275V84.0215H104.537V84.2402ZM104.701 84.6504H104.455V84.4043H104.701V84.6504ZM104.537 84.5684H104.619V84.4863H104.537V84.5684ZM105.029 84.6504H104.783V84.4043H105.029V84.6504ZM104.865 84.5684H104.947V84.4863H104.865V84.5684ZM105.357 84.6504H105.111V84.4043H105.357V84.6504ZM105.193 84.5684H105.275V84.4863H105.193V84.5684ZM104.701 84.9238H104.455V84.6777H104.701V84.9238ZM104.537 84.8418H104.619V84.7598H104.537V84.8418ZM105.029 84.9238H104.783V84.6777H105.029V84.9238ZM104.865 84.8418H104.947V84.7598H104.865V84.8418Z" fill="#3585DB"/>
<path d="M105.193 84.809H105.111V84.6777H105.316V84.7598H105.193V84.809Z" fill="#3585DB"/>
<path d="M105.02 85.0879H104.318V83.8027H105.494V84.7231H105.412V83.8848H104.4V85.0059H105.02V85.0879Z" fill="#3585DB"/>
<path d="M105.398 85.416C105.336 85.416 105.275 85.3976 105.224 85.363C105.172 85.3285 105.132 85.2794 105.108 85.2219C105.084 85.1644 105.078 85.1012 105.09 85.0402C105.102 84.9792 105.132 84.9232 105.176 84.8792C105.22 84.8352 105.276 84.8053 105.337 84.7932C105.398 84.781 105.461 84.7872 105.519 84.811C105.576 84.8348 105.625 84.8752 105.66 84.9269C105.694 84.9786 105.713 85.0394 105.713 85.1016C105.713 85.1849 105.68 85.2648 105.621 85.3238C105.562 85.3827 105.482 85.4159 105.398 85.416ZM105.398 84.8691C105.352 84.8691 105.308 84.8828 105.269 84.9083C105.231 84.9338 105.201 84.9701 105.184 85.0126C105.166 85.0551 105.162 85.1018 105.17 85.1469C105.179 85.192 105.202 85.2334 105.234 85.2659C105.267 85.2984 105.308 85.3206 105.353 85.3295C105.398 85.3385 105.445 85.3339 105.487 85.3163C105.53 85.2987 105.566 85.2689 105.592 85.2307C105.617 85.1925 105.631 85.1475 105.631 85.1016C105.631 85.0399 105.606 84.9808 105.563 84.9372C105.519 84.8936 105.46 84.8691 105.398 84.8691Z" fill="#3585DB"/>
</g>
<defs>
<clipPath id="clip0_161_309">
<rect width="1.75" height="1.75" fill="white" transform="translate(104.141 83.7344)"/>
</clipPath>
</defs>
</svg>
