<svg width="30" height="30" viewBox="0 0 30 30" fill="none" xmlns="http://www.w3.org/2000/svg">
<g clip-path="url(#clip0_348_474)">
<path d="M22.8947 -0.231531H7.10526C6.52039 -0.231531 5.95947 0.00080885 5.54591 0.414376C5.13234 0.827943 4.9 1.38886 4.9 1.97373V23.0264C4.9 23.6112 5.13234 24.1722 5.54591 24.5857C5.95947 24.9993 6.52039 25.2316 7.10526 25.2316H22.8947C23.4796 25.2316 24.0405 24.9993 24.4541 24.5857C24.8677 24.1722 25.1 23.6112 25.1 23.0264V1.97373C25.1 1.38886 24.8677 0.827943 24.4541 0.414376C24.0405 0.000808865 23.4796 -0.231531 22.8947 -0.231531ZM23.8474 23.0264C23.8474 23.279 23.747 23.5213 23.5683 23.7C23.3897 23.8786 23.1474 23.979 22.8947 23.979H7.10526C6.85261 23.979 6.6103 23.8786 6.43165 23.7C6.253 23.5213 6.15263 23.279 6.15263 23.0264V1.97373C6.15263 1.72108 6.253 1.47877 6.43165 1.30012C6.6103 1.12147 6.85261 1.0211 7.10526 1.0211H22.8947C23.1474 1.0211 23.3897 1.12147 23.5683 1.30012C23.747 1.47877 23.8474 1.72108 23.8474 1.97373V23.0264Z" fill="#878787" stroke="#878787" stroke-width="0.2"/>
<path d="M22.3684 2.40006H7.63154C7.46543 2.40006 7.30613 2.46605 7.18867 2.5835C7.07121 2.70096 7.00522 2.86027 7.00522 3.02638V8.81585C7.00522 8.98196 7.07121 9.14127 7.18867 9.25872C7.30613 9.37618 7.46543 9.44217 7.63154 9.44217H22.3684C22.5345 9.44217 22.6938 9.37618 22.8113 9.25872C22.9287 9.14127 22.9947 8.98196 22.9947 8.81585V3.02638C22.9947 2.86027 22.9287 2.70096 22.8113 2.5835C22.6938 2.46605 22.5345 2.40006 22.3684 2.40006ZM21.7421 8.18953H8.25786V3.65269H21.7421V8.18953Z" fill="#878787" stroke="#878787" stroke-width="0.2"/>
<path d="M18.1579 10.8211H16.0527C15.8866 10.8211 15.7273 10.8871 15.6098 11.0045C15.4924 11.122 15.4264 11.2813 15.4264 11.4474V13.5527C15.4264 13.7188 15.4924 13.8781 15.6098 13.9955C15.7273 14.113 15.8866 14.179 16.0527 14.179H18.1579C18.3241 14.179 18.4834 14.113 18.6008 13.9955C18.7183 13.8781 18.7843 13.7188 18.7843 13.5527V11.4474C18.7843 11.2813 18.7183 11.122 18.6008 11.0045C18.4834 10.8871 18.3241 10.8211 18.1579 10.8211ZM17.5316 12.9263H16.679V12.0737H17.5316V12.9263Z" fill="#878787" stroke="#878787" stroke-width="0.2"/>
<path d="M22.3684 10.8211H20.2631C20.097 10.8211 19.9377 10.8871 19.8203 11.0045C19.7028 11.122 19.6368 11.2813 19.6368 11.4474V13.5527C19.6368 13.7188 19.7028 13.8781 19.8203 13.9955C19.9377 14.113 20.097 14.179 20.2631 14.179H22.3684C22.5345 14.179 22.6938 14.113 22.8113 13.9955C22.9287 13.8781 22.9947 13.7188 22.9947 13.5527V11.4474C22.9947 11.2813 22.9287 11.122 22.8113 11.0045C22.6938 10.8871 22.5345 10.8211 22.3684 10.8211ZM21.7421 12.9263H20.8894V12.0737H21.7421V12.9263Z" fill="#878787" stroke="#878787" stroke-width="0.2"/>
<path d="M13.9474 10.8211H11.8421C11.676 10.8211 11.5167 10.8871 11.3992 11.0045C11.2818 11.122 11.2158 11.2813 11.2158 11.4474V13.5527C11.2158 13.7188 11.2818 13.8781 11.3992 13.9955C11.5167 14.113 11.676 14.179 11.8421 14.179H13.9474C14.1135 14.179 14.2728 14.113 14.3902 13.9955C14.5077 13.8781 14.5737 13.7188 14.5737 13.5527V11.4474C14.5737 11.2813 14.5077 11.122 14.3902 11.0045C14.2728 10.8871 14.1135 10.8211 13.9474 10.8211ZM13.3211 12.9263H12.4684V12.0737H13.3211V12.9263Z" fill="#878787" stroke="#878787" stroke-width="0.2"/>
<path d="M9.7368 10.8211H7.63154C7.46543 10.8211 7.30613 10.8871 7.18867 11.0045C7.07121 11.122 7.00522 11.2813 7.00522 11.4474V13.5527C7.00522 13.7188 7.07121 13.8781 7.18867 13.9955C7.30613 14.113 7.46543 14.179 7.63154 14.179H9.7368C9.90291 14.179 10.0622 14.113 10.1797 13.9955C10.2971 13.8781 10.3631 13.7188 10.3631 13.5527V11.4474C10.3631 11.2813 10.2971 11.122 10.1797 11.0045C10.0622 10.8871 9.90291 10.8211 9.7368 10.8211ZM9.11049 12.9263H8.25786V12.0737H9.11049V12.9263Z" fill="#878787" stroke="#878787" stroke-width="0.2"/>
<path d="M18.1579 15.0317H16.0527C15.8866 15.0317 15.7273 15.0976 15.6098 15.2151C15.4924 15.3326 15.4264 15.4919 15.4264 15.658V17.7632C15.4264 17.9293 15.4924 18.0886 15.6098 18.2061C15.7273 18.3236 15.8866 18.3895 16.0527 18.3895H18.1579C18.3241 18.3895 18.4834 18.3236 18.6008 18.2061C18.7183 18.0886 18.7843 17.9293 18.7843 17.7632V15.658C18.7843 15.4919 18.7183 15.3326 18.6008 15.2151C18.4834 15.0976 18.3241 15.0317 18.1579 15.0317ZM17.5316 17.1369H16.679V16.2843H17.5316V17.1369Z" fill="#878787" stroke="#878787" stroke-width="0.2"/>
<path d="M13.9474 15.0317H11.8421C11.676 15.0317 11.5167 15.0976 11.3992 15.2151C11.2818 15.3326 11.2158 15.4919 11.2158 15.658V17.7632C11.2158 17.9293 11.2818 18.0886 11.3992 18.2061C11.5167 18.3236 11.676 18.3895 11.8421 18.3895H13.9474C14.1135 18.3895 14.2728 18.3236 14.3902 18.2061C14.5077 18.0886 14.5737 17.9293 14.5737 17.7632V15.658C14.5737 15.4919 14.5077 15.3326 14.3902 15.2151C14.2728 15.0976 14.1135 15.0317 13.9474 15.0317ZM13.3211 17.1369H12.4684V16.2843H13.3211V17.1369Z" fill="#878787" stroke="#878787" stroke-width="0.2"/>
<path d="M9.7368 15.0317H7.63154C7.46543 15.0317 7.30613 15.0976 7.18867 15.2151C7.07121 15.3326 7.00522 15.4919 7.00522 15.658V17.7632C7.00522 17.9293 7.07121 18.0886 7.18867 18.2061C7.30613 18.3236 7.46543 18.3895 7.63154 18.3895H9.7368C9.90291 18.3895 10.0622 18.3236 10.1797 18.2061C10.2971 18.0886 10.3631 17.9293 10.3631 17.7632V15.658C10.3631 15.4919 10.2971 15.3326 10.1797 15.2151C10.0622 15.0976 9.90291 15.0317 9.7368 15.0317ZM9.11049 17.1369H8.25786V16.2843H9.11049V17.1369Z" fill="#878787" stroke="#878787" stroke-width="0.2"/>
<path d="M18.1579 19.2422H16.0527C15.8866 19.2422 15.7273 19.3081 15.6098 19.4256C15.4924 19.5431 15.4264 19.7024 15.4264 19.8685V21.9737C15.4264 22.1399 15.4924 22.2992 15.6098 22.4166C15.7273 22.5341 15.8866 22.6001 16.0527 22.6001H18.1579C18.3241 22.6001 18.4834 22.5341 18.6008 22.4166C18.7183 22.2992 18.7843 22.1399 18.7843 21.9737V19.8685C18.7843 19.7024 18.7183 19.5431 18.6008 19.4256C18.4834 19.3081 18.3241 19.2422 18.1579 19.2422ZM17.5316 21.3474H16.679V20.4948H17.5316V21.3474Z" fill="#878787" stroke="#878787" stroke-width="0.2"/>
<path d="M22.3684 15.0317H20.2631C20.097 15.0317 19.9377 15.0976 19.8203 15.2151C19.7028 15.3326 19.6368 15.4919 19.6368 15.658V21.9738C19.6368 22.1399 19.7028 22.2992 19.8203 22.4166C19.9377 22.5341 20.097 22.6001 20.2631 22.6001H22.3684C22.5345 22.6001 22.6938 22.5341 22.8113 22.4166C22.9287 22.2992 22.9947 22.1399 22.9947 21.9738V15.658C22.9947 15.4919 22.9287 15.3326 22.8113 15.2151C22.6938 15.0976 22.5345 15.0317 22.3684 15.0317ZM21.7421 21.3474H20.8894V16.2843H21.7421V21.3474Z" fill="#878787" stroke="#878787" stroke-width="0.2"/>
<path d="M13.9474 19.2422H11.8421C11.676 19.2422 11.5167 19.3081 11.3992 19.4256C11.2818 19.5431 11.2158 19.7024 11.2158 19.8685V21.9737C11.2158 22.1399 11.2818 22.2992 11.3992 22.4166C11.5167 22.5341 11.676 22.6001 11.8421 22.6001H13.9474C14.1135 22.6001 14.2728 22.5341 14.3902 22.4166C14.5077 22.2992 14.5737 22.1399 14.5737 21.9737V19.8685C14.5737 19.7024 14.5077 19.5431 14.3902 19.4256C14.2728 19.3081 14.1135 19.2422 13.9474 19.2422ZM13.3211 21.3474H12.4684V20.4948H13.3211V21.3474Z" fill="#878787" stroke="#878787" stroke-width="0.2"/>
<path d="M9.7368 19.2422H7.63154C7.46543 19.2422 7.30613 19.3081 7.18867 19.4256C7.07121 19.5431 7.00522 19.7024 7.00522 19.8685V21.9737C7.00522 22.1399 7.07121 22.2992 7.18867 22.4166C7.30613 22.5341 7.46543 22.6001 7.63154 22.6001H9.7368C9.90291 22.6001 10.0622 22.5341 10.1797 22.4166C10.2971 22.2992 10.3631 22.1399 10.3631 21.9737V19.8685C10.3631 19.7024 10.2971 19.5431 10.1797 19.4256C10.0622 19.3081 9.90291 19.2422 9.7368 19.2422ZM9.11049 21.3474H8.25786V20.4948H9.11049V21.3474Z" fill="#878787" stroke="#878787" stroke-width="0.2"/>
</g>
<defs>
<clipPath id="clip0_348_474">
<rect width="30" height="30" fill="white"/>
</clipPath>
</defs>
</svg>
