<svg width="107" height="126" viewBox="0 0 107 126" fill="none" xmlns="http://www.w3.org/2000/svg">
<path fill-rule="evenodd" clip-rule="evenodd" d="M20 40C25.3043 40 30.3914 37.8929 34.1421 34.1421C37.8929 30.3914 40 25.3043 40 20C40 14.6957 37.8929 9.60859 34.1421 5.85786C30.3914 2.10714 25.3043 0 20 0C14.6957 0 9.60859 2.10714 5.85786 5.85786C2.10714 9.60859 0 14.6957 0 20C0 25.3043 2.10714 30.3914 5.85786 34.1421C9.60859 37.8929 14.6957 40 20 40ZM29.2675 16.7675C29.7229 16.296 29.9749 15.6645 29.9692 15.009C29.9635 14.3535 29.7006 13.7265 29.237 13.263C28.7735 12.7994 28.1465 12.5365 27.491 12.5308C26.8355 12.5251 26.204 12.7771 25.7325 13.2325L17.5 21.465L14.2675 18.2325C13.796 17.7771 13.1645 17.5251 12.509 17.5308C11.8535 17.5365 11.2265 17.7994 10.763 18.263C10.2994 18.7265 10.0365 19.3535 10.0308 20.009C10.0251 20.6645 10.2771 21.296 10.7325 21.7675L15.7325 26.7675C16.2013 27.2362 16.8371 27.4995 17.5 27.4995C18.1629 27.4995 18.7987 27.2362 19.2675 26.7675L29.2675 16.7675Z" fill="#3585DB"/>
<g clip-path="url(#clip0_425_205)">
<path d="M83.7894 27.4703H32.2104C30.36 27.4703 28.5853 28.2054 27.2768 29.5139C25.9683 30.8224 25.2333 32.597 25.2333 34.4475V103.219C25.2333 105.07 25.9683 106.845 27.2768 108.153C28.5853 109.462 30.36 110.197 32.2104 110.197H83.7894C85.6399 110.197 87.4145 109.462 88.723 108.153C90.0315 106.845 90.7666 105.07 90.7666 103.219V34.4475C90.7666 32.597 90.0315 30.8224 88.723 29.5139C87.4145 28.2054 85.6399 27.4703 83.7894 27.4703ZM87.128 103.219C87.128 104.105 86.7762 104.954 86.1501 105.58C85.524 106.206 84.6748 106.558 83.7894 106.558H32.2104C31.325 106.558 30.4758 106.206 29.8497 105.58C29.2236 104.954 28.8718 104.105 28.8718 103.219V34.4475C28.8718 33.5621 29.2236 32.7129 29.8497 32.0868C30.4758 31.4607 31.325 31.1089 32.2104 31.1089H83.7894C84.6748 31.1089 85.524 31.4607 86.1501 32.0868C86.7762 32.7129 87.128 33.5621 87.128 34.4475V103.219Z" fill="#3585DB" stroke="#3585DB" stroke-width="0.2"/>
<path d="M82.0701 36.0667H33.9297C33.4472 36.0667 32.9845 36.2584 32.6433 36.5996C32.3021 36.9408 32.1104 37.4035 32.1104 37.886V56.7983C32.1104 57.2808 32.3021 57.7436 32.6433 58.0848C32.9845 58.4259 33.4472 58.6176 33.9297 58.6176H82.0701C82.5526 58.6176 83.0154 58.4259 83.3565 58.0848C83.6977 57.7436 83.8894 57.2808 83.8894 56.7983V37.886C83.8894 37.4035 83.6977 36.9408 83.3565 36.5996C83.0154 36.2584 82.5526 36.0667 82.0701 36.0667ZM80.2508 54.979H35.749V39.7053H80.2508V54.979Z" fill="#3585DB" stroke="#3585DB" stroke-width="0.2"/>
<path d="M68.3157 63.5755H61.4385C60.956 63.5755 60.4933 63.7672 60.1521 64.1084C59.8109 64.4496 59.6192 64.9123 59.6192 65.3948V72.272C59.6192 72.7545 59.8109 73.2173 60.1521 73.5585C60.4933 73.8997 60.956 74.0913 61.4385 74.0913H68.3157C68.7982 74.0913 69.261 73.8997 69.6022 73.5585C69.9434 73.2173 70.135 72.7545 70.135 72.272V65.3948C70.135 64.9123 69.9434 64.4496 69.6022 64.1084C69.261 63.7672 68.7982 63.5755 68.3157 63.5755ZM66.4964 70.4527H63.2578V67.2141H66.4964V70.4527Z" fill="#3585DB" stroke="#3585DB" stroke-width="0.2"/>
<path d="M82.0701 63.5755H75.1929C74.7104 63.5755 74.2477 63.7672 73.9065 64.1084C73.5653 64.4496 73.3736 64.9123 73.3736 65.3948V72.272C73.3736 72.7545 73.5653 73.2173 73.9065 73.5585C74.2477 73.8997 74.7104 74.0913 75.1929 74.0913H82.0701C82.5526 74.0913 83.0154 73.8997 83.3566 73.5585C83.6977 73.2173 83.8894 72.7545 83.8894 72.272V65.3948C83.8894 64.9123 83.6977 64.4496 83.3566 64.1084C83.0154 63.7672 82.5526 63.5755 82.0701 63.5755ZM80.2508 70.4527H77.0122V67.2141H80.2508V70.4527Z" fill="#3585DB" stroke="#3585DB" stroke-width="0.2"/>
<path d="M54.5613 63.5755H47.6841C47.2016 63.5755 46.7389 63.7672 46.3977 64.1084C46.0565 64.4496 45.8648 64.9123 45.8648 65.3948V72.272C45.8648 72.7545 46.0565 73.2173 46.3977 73.5585C46.7389 73.8997 47.2016 74.0913 47.6841 74.0913H54.5613C55.0438 74.0913 55.5066 73.8997 55.8478 73.5585C56.189 73.2173 56.3806 72.7545 56.3806 72.272V65.3948C56.3806 64.9123 56.189 64.4496 55.8478 64.1084C55.5066 63.7672 55.0438 63.5755 54.5613 63.5755ZM52.742 70.4527H49.5034V67.2141H52.742V70.4527Z" fill="#3585DB" stroke="#3585DB" stroke-width="0.2"/>
<path d="M40.8069 63.5755H33.9297C33.4472 63.5755 32.9845 63.7672 32.6433 64.1084C32.3021 64.4496 32.1104 64.9123 32.1104 65.3948V72.272C32.1104 72.7545 32.3021 73.2173 32.6433 73.5585C32.9845 73.8997 33.4472 74.0913 33.9297 74.0913H40.8069C41.2894 74.0913 41.7522 73.8997 42.0934 73.5585C42.4346 73.2173 42.6262 72.7545 42.6262 72.272V65.3948C42.6262 64.9123 42.4346 64.4496 42.0934 64.1084C41.7522 63.7672 41.2894 63.5755 40.8069 63.5755ZM38.9876 70.4527H35.749V67.2141H38.9876V70.4527Z" fill="#3585DB" stroke="#3585DB" stroke-width="0.2"/>
<path d="M68.3157 77.33H61.4385C60.956 77.33 60.4933 77.5217 60.1521 77.8629C59.8109 78.204 59.6192 78.6668 59.6192 79.1493V86.0265C59.6192 86.509 59.8109 86.9717 60.1521 87.3129C60.4933 87.6541 60.956 87.8458 61.4385 87.8458H68.3157C68.7982 87.8458 69.261 87.6541 69.6022 87.3129C69.9434 86.9717 70.135 86.509 70.135 86.0265V79.1493C70.135 78.6668 69.9434 78.204 69.6022 77.8629C69.261 77.5217 68.7982 77.33 68.3157 77.33ZM66.4964 84.2072H63.2578V80.9686H66.4964V84.2072Z" fill="#3585DB" stroke="#3585DB" stroke-width="0.2"/>
<path d="M54.5613 77.33H47.6841C47.2016 77.33 46.7389 77.5217 46.3977 77.8629C46.0565 78.204 45.8648 78.6668 45.8648 79.1493V86.0265C45.8648 86.509 46.0565 86.9717 46.3977 87.3129C46.7389 87.6541 47.2016 87.8458 47.6841 87.8458H54.5613C55.0438 87.8458 55.5066 87.6541 55.8478 87.3129C56.189 86.9717 56.3806 86.509 56.3806 86.0265V79.1493C56.3806 78.6668 56.189 78.204 55.8478 77.8629C55.5066 77.5217 55.0438 77.33 54.5613 77.33ZM52.742 84.2072H49.5034V80.9686H52.742V84.2072Z" fill="#3585DB" stroke="#3585DB" stroke-width="0.2"/>
<path d="M40.8069 77.33H33.9297C33.4472 77.33 32.9845 77.5217 32.6433 77.8629C32.3021 78.204 32.1104 78.6668 32.1104 79.1493V86.0265C32.1104 86.509 32.3021 86.9717 32.6433 87.3129C32.9845 87.6541 33.4472 87.8458 33.9297 87.8458H40.8069C41.2894 87.8458 41.7522 87.6541 42.0934 87.3129C42.4346 86.9717 42.6262 86.509 42.6262 86.0265V79.1493C42.6262 78.6668 42.4346 78.204 42.0934 77.8629C41.7522 77.5217 41.2894 77.33 40.8069 77.33ZM38.9876 84.2072H35.749V80.9686H38.9876V84.2072Z" fill="#3585DB" stroke="#3585DB" stroke-width="0.2"/>
<path d="M68.3157 91.0843H61.4385C60.956 91.0843 60.4933 91.276 60.1521 91.6172C59.8109 91.9584 59.6192 92.4211 59.6192 92.9036V99.7808C59.6192 100.263 59.8109 100.726 60.1521 101.067C60.4933 101.408 60.956 101.6 61.4385 101.6H68.3157C68.7982 101.6 69.261 101.408 69.6022 101.067C69.9434 100.726 70.135 100.263 70.135 99.7808V92.9036C70.135 92.4211 69.9434 91.9584 69.6022 91.6172C69.261 91.276 68.7982 91.0843 68.3157 91.0843ZM66.4964 97.9615H63.2578V94.7229H66.4964V97.9615Z" fill="#3585DB" stroke="#3585DB" stroke-width="0.2"/>
<path d="M82.0701 77.33H75.1929C74.7104 77.33 74.2477 77.5217 73.9065 77.8629C73.5653 78.204 73.3736 78.6668 73.3736 79.1493V99.7809C73.3736 100.263 73.5653 100.726 73.9065 101.067C74.2477 101.408 74.7104 101.6 75.1929 101.6H82.0701C82.5526 101.6 83.0154 101.408 83.3566 101.067C83.6977 100.726 83.8894 100.263 83.8894 99.7809V79.1493C83.8894 78.6668 83.6977 78.204 83.3566 77.8629C83.0154 77.5217 82.5526 77.33 82.0701 77.33ZM80.2508 97.9616H77.0122V80.9686H80.2508V97.9616Z" fill="#3585DB" stroke="#3585DB" stroke-width="0.2"/>
<path d="M54.5613 91.0843H47.6841C47.2016 91.0843 46.7389 91.276 46.3977 91.6172C46.0565 91.9584 45.8648 92.4211 45.8648 92.9036V99.7808C45.8648 100.263 46.0565 100.726 46.3977 101.067C46.7389 101.408 47.2016 101.6 47.6841 101.6H54.5613C55.0438 101.6 55.5066 101.408 55.8478 101.067C56.189 100.726 56.3806 100.263 56.3806 99.7808V92.9036C56.3806 92.4211 56.189 91.9584 55.8478 91.6172C55.5066 91.276 55.0438 91.0843 54.5613 91.0843ZM52.742 97.9615H49.5034V94.7229H52.742V97.9615Z" fill="#3585DB" stroke="#3585DB" stroke-width="0.2"/>
<path d="M40.8069 91.0843H33.9297C33.4472 91.0843 32.9845 91.276 32.6433 91.6172C32.3021 91.9584 32.1104 92.4211 32.1104 92.9036V99.7808C32.1104 100.263 32.3021 100.726 32.6433 101.067C32.9845 101.408 33.4472 101.6 33.9297 101.6H40.8069C41.2894 101.6 41.7522 101.408 42.0934 101.067C42.4346 100.726 42.6262 100.263 42.6262 99.7808V92.9036C42.6262 92.4211 42.4346 91.9584 42.0934 91.6172C41.7522 91.276 41.2894 91.0843 40.8069 91.0843ZM38.9876 97.9615H35.749V94.7229H38.9876V97.9615Z" fill="#3585DB" stroke="#3585DB" stroke-width="0.2"/>
</g>
<defs>
<clipPath id="clip0_425_205">
<rect width="98" height="98" fill="white" transform="translate(9 28)"/>
</clipPath>
</defs>
</svg>
