<svg width="30" height="30" viewBox="0 0 30 30" fill="none" xmlns="http://www.w3.org/2000/svg">
<path d="M7.5 15L5 15M7.5 15C7.5 15.663 7.76339 16.2989 8.23223 16.7678C8.70107 17.2366 9.33696 17.5 10 17.5C10.663 17.5 11.2989 17.2366 11.7678 16.7678C12.2366 16.2989 12.5 15.663 12.5 15M7.5 15C7.5 14.337 7.76339 13.7011 8.23223 13.2322C8.70107 12.7634 9.33696 12.5 10 12.5C10.663 12.5 11.2989 12.7634 11.7678 13.2322C12.2366 13.7011 12.5 14.337 12.5 15M12.5 15L25 15M22.5 22.5C22.5 21.837 22.2366 21.2011 21.7678 20.7322C21.2989 20.2634 20.663 20 20 20C19.337 20 18.7011 20.2634 18.2322 20.7322C17.7634 21.2011 17.5 21.837 17.5 22.5M22.5 22.5C22.5 23.163 22.2366 23.7989 21.7678 24.2678C21.2989 24.7366 20.663 25 20 25C19.337 25 18.7011 24.7366 18.2322 24.2678C17.7634 23.7989 17.5 23.163 17.5 22.5M22.5 22.5L25 22.5M17.5 22.5L5 22.5M22.5 7.5C22.5 6.83696 22.2366 6.20107 21.7678 5.73223C21.2989 5.26339 20.663 5 20 5C19.337 5 18.7011 5.26339 18.2322 5.73223C17.7634 6.20107 17.5 6.83696 17.5 7.5M22.5 7.5C22.5 8.16304 22.2366 8.79892 21.7678 9.26777C21.2989 9.73661 20.663 10 20 10C19.337 10 18.7011 9.73661 18.2322 9.26777C17.7634 8.79892 17.5 8.16304 17.5 7.5M22.5 7.5L25 7.5M17.5 7.5L5 7.5" stroke="white" stroke-width="2" stroke-linecap="round" stroke-linejoin="round"/>
</svg>
