<svg width="30" height="30" viewBox="0 0 30 30" fill="none" xmlns="http://www.w3.org/2000/svg">
<path d="M15 14.7115C10.8647 14.7115 7.5 11.6056 7.5 7.78843C7.5 3.97122 10.8647 0.865356 15 0.865356C19.1353 0.865356 22.5 3.97122 22.5 7.78843C22.5 11.6056 19.1353 14.7115 15 14.7115ZM15 2.59613C11.8978 2.59613 9.375 4.92488 9.375 7.78843C9.375 10.652 11.8978 12.9807 15 12.9807C18.1022 12.9807 20.625 10.652 20.625 7.78843C20.625 4.92488 18.1022 2.59613 15 2.59613Z" fill="#878787"/>
<path d="M15.375 11.423H14.625C14.0995 11.4211 13.5886 11.2633 13.1678 10.9728C12.7469 10.6823 12.4384 10.2747 12.2878 9.80996C12.2498 9.70013 12.236 9.5844 12.2471 9.46957C12.2582 9.35474 12.2941 9.24311 12.3526 9.14125C12.4111 9.0394 12.4911 8.94936 12.5879 8.87643C12.6846 8.80351 12.7962 8.74916 12.916 8.71658C13.0358 8.684 13.1614 8.67385 13.2856 8.68672C13.4097 8.69959 13.5298 8.73523 13.6387 8.79154C13.7477 8.84785 13.8434 8.92369 13.9202 9.01462C13.997 9.10554 14.0534 9.20972 14.0859 9.32102C14.1562 9.53996 14.3784 9.69314 14.625 9.69314H15.375C15.5243 9.69314 15.6675 9.63839 15.7731 9.54093C15.8787 9.44347 15.938 9.3113 15.938 9.17347C15.938 9.03565 15.8787 8.90347 15.7731 8.80601C15.6675 8.70856 15.5243 8.65381 15.375 8.65381H14.625C13.2806 8.65381 12.1875 7.6439 12.1875 6.40381C12.1875 5.16371 13.2806 4.15381 14.625 4.15381H15.375C16.4259 4.15381 17.3541 4.77169 17.6869 5.69246C17.7277 5.80069 17.7449 5.91533 17.7374 6.02972C17.7298 6.14412 17.6978 6.256 17.643 6.35886C17.5882 6.46172 17.5119 6.55352 17.4184 6.62893C17.3249 6.70433 17.2161 6.76184 17.0983 6.79812C16.9806 6.8344 16.8561 6.84872 16.7323 6.84025C16.6085 6.83178 16.4877 6.8007 16.377 6.7488C16.2663 6.6969 16.1679 6.62522 16.0875 6.53792C16.007 6.45062 15.9462 6.34944 15.9084 6.24025C15.8715 6.13663 15.8 6.04645 15.7042 5.98257C15.6084 5.91869 15.4932 5.8844 15.375 5.88458H14.625C14.4758 5.88458 14.3327 5.93928 14.2273 6.03666C14.1218 6.13403 14.0625 6.2661 14.0625 6.40381C14.0625 6.54152 14.1218 6.67359 14.2273 6.77096C14.3327 6.86833 14.4758 6.92304 14.625 6.92304H15.375C16.7194 6.92304 17.8125 7.93294 17.8125 9.17304C17.8125 10.4131 16.7194 11.423 15.375 11.423V11.423Z" fill="#878787"/>
<path d="M15 5.19236C14.7459 5.19236 14.5116 5.09717 14.3344 4.9414C14.2969 4.89813 14.25 4.85486 14.2219 4.80294C14.1847 4.7588 14.1562 4.70902 14.1375 4.65583C14.1105 4.60667 14.0913 4.55422 14.0803 4.50006C14.0719 4.43948 14.0625 4.38756 14.0625 4.32698C14.0625 4.10198 14.1647 3.87698 14.3344 3.71256C14.6813 3.39236 15.3094 3.39236 15.6656 3.71256C15.8344 3.87698 15.9375 4.10198 15.9375 4.32698C15.9375 4.38756 15.9281 4.43948 15.9178 4.50006C15.908 4.55438 15.8891 4.60695 15.8616 4.65583C15.8425 4.70887 15.814 4.7586 15.7772 4.80294C15.7397 4.85486 15.7022 4.89813 15.6647 4.9414C15.4875 5.09717 15.2438 5.19236 15 5.19236ZM15 12.1154C14.7459 12.1154 14.5116 12.0202 14.3344 11.8645C14.2969 11.8212 14.25 11.7779 14.2219 11.726C14.1847 11.6819 14.1562 11.6321 14.1375 11.5789C14.1105 11.5297 14.0913 11.4773 14.0803 11.4231C14.0719 11.3626 14.0625 11.3106 14.0625 11.2501C14.0625 11.0251 14.1647 10.8001 14.3344 10.6356C14.6813 10.3154 15.3094 10.3154 15.6656 10.6356C15.8344 10.8001 15.9375 11.0251 15.9375 11.2501C15.9375 11.3106 15.9281 11.3626 15.9178 11.4231C15.908 11.4775 15.8891 11.53 15.8616 11.5789C15.8425 11.6319 15.814 11.6817 15.7772 11.726C15.7397 11.7779 15.7022 11.8212 15.6647 11.8645C15.4875 12.0202 15.2438 12.1154 15 12.1154V12.1154ZM16.875 26.827H1.875C1.62636 26.827 1.3879 26.7358 1.21209 26.5735C1.03627 26.4112 0.9375 26.1911 0.9375 25.9616V18.1731C0.9375 17.9438 1.03594 17.7231 1.21219 17.5613C1.43156 17.3579 3.42469 15.577 5.625 15.577C7.4475 15.577 9.79875 16.8482 10.5891 17.3077H15C15.4103 17.3083 15.8156 17.3917 16.1874 17.5519C16.5592 17.7122 16.8886 17.9456 17.1525 18.2356C17.4163 18.5257 17.6084 18.8655 17.7151 19.2313C17.8218 19.597 17.8407 19.9799 17.7703 20.353L25.1681 17.5077C25.5954 17.3429 26.0603 17.2782 26.5212 17.3194C26.9822 17.3606 27.4249 17.5065 27.81 17.7439C28.1957 17.9806 28.5119 18.3017 28.7304 18.6786C28.949 19.0555 29.063 19.4764 29.0625 19.9039C29.0626 20.0552 29.0196 20.2038 28.9381 20.335C28.8565 20.4662 28.739 20.5754 28.5975 20.6516L17.3475 26.7093C17.204 26.7863 17.041 26.8269 16.875 26.827V26.827ZM2.8125 25.0962H16.6209L27.0647 19.4729C26.9919 19.357 26.8911 19.2581 26.7703 19.1839C26.6425 19.1038 26.4949 19.0546 26.341 19.0408C26.1872 19.027 26.0321 19.0492 25.89 19.1051L17.2369 22.4334C17.1222 22.4774 16.9992 22.5 16.875 22.5001H9.375C9.12636 22.5001 8.8879 22.4089 8.71209 22.2466C8.53627 22.0843 8.4375 21.8642 8.4375 21.6347C8.4375 21.4052 8.53627 21.185 8.71209 21.0227C8.8879 20.8605 9.12636 20.7693 9.375 20.7693H15C15.2414 20.7593 15.4693 20.6638 15.6363 20.5026C15.8033 20.3414 15.8965 20.1269 15.8965 19.9039C15.8965 19.6809 15.8033 19.4664 15.6363 19.3052C15.4693 19.144 15.2414 19.0485 15 19.0385H10.3125C10.1278 19.0385 9.94594 18.9875 9.79219 18.894C9.075 18.4527 6.92531 17.3077 5.625 17.3077C4.60313 17.3077 3.42469 18.0693 2.8125 18.553V25.0962Z" fill="#878787"/>
</svg>
