<svg width="30" height="30" viewBox="0 0 30 30" fill="none" xmlns="http://www.w3.org/2000/svg">
<defs>
<clipPath id="clip0_348_464">
<rect width="0.535714" height="0.535714" fill="white" transform="translate(29.4309 17.6227)"/>
</clipPath>
</defs>
<path d="M24.0592 5.30134C24.3175 5.56176 24.5388 5.91518 24.7233 6.36161C24.9078 6.80804 25 7.21726 25 7.58929V23.6607C25 24.0327 24.8709 24.349 24.6126 24.6094C24.3544 24.8698 24.0408 25 23.6719 25H5.07813C4.7092 25 4.39562 24.8698 4.13737 24.6094C3.87912 24.349 3.75 24.0327 3.75 23.6607V1.33929C3.75 0.967262 3.87912 0.651042 4.13737 0.390625C4.39562 0.130208 4.7092 0 5.07813 0H17.474C17.8429 0 18.2487 0.093006 18.6914 0.279018C19.1341 0.46503 19.4846 0.688244 19.7428 0.948661L24.0592 5.30134ZM17.9167 1.89732V7.14286H23.1185C23.0263 6.87314 22.9248 6.68248 22.8141 6.57087L18.4839 2.20424C18.3732 2.09263 18.1841 1.99033 17.9167 1.89732ZM23.2292 23.2143V8.92857H17.474C17.105 8.92857 16.7914 8.79836 16.5332 8.53795C16.275 8.27753 16.1458 7.96131 16.1458 7.58929V1.78571H5.52083V23.2143H23.2292ZM9.0625 11.1607C9.0625 11.0305 9.104 10.9235 9.18701 10.8398C9.27002 10.7561 9.37609 10.7143 9.50521 10.7143H19.2448C19.3739 10.7143 19.48 10.7561 19.563 10.8398C19.646 10.9235 19.6875 11.0305 19.6875 11.1607V12.0536C19.6875 12.1838 19.646 12.2907 19.563 12.3744C19.48 12.4581 19.3739 12.5 19.2448 12.5H9.50521C9.37609 12.5 9.27002 12.4581 9.18701 12.3744C9.104 12.2907 9.0625 12.1838 9.0625 12.0536V11.1607ZM19.2448 14.2857C19.3739 14.2857 19.48 14.3276 19.563 14.4113C19.646 14.495 19.6875 14.6019 19.6875 14.7321V15.625C19.6875 15.7552 19.646 15.8622 19.563 15.9459C19.48 16.0296 19.3739 16.0714 19.2448 16.0714H9.50521C9.37609 16.0714 9.27002 16.0296 9.18701 15.9459C9.104 15.8622 9.0625 15.7552 9.0625 15.625V14.7321C9.0625 14.6019 9.104 14.495 9.18701 14.4113C9.27002 14.3276 9.37609 14.2857 9.50521 14.2857H19.2448ZM19.2448 17.8571C19.3739 17.8571 19.48 17.899 19.563 17.9827C19.646 18.0664 19.6875 18.1734 19.6875 18.3036V19.1964C19.6875 19.3266 19.646 19.4336 19.563 19.5173C19.48 19.601 19.3739 19.6429 19.2448 19.6429H9.50521C9.37609 19.6429 9.27002 19.601 9.18701 19.5173C9.104 19.4336 9.0625 19.3266 9.0625 19.1964V18.3036C9.0625 18.1734 9.104 18.0664 9.18701 17.9827C9.27002 17.899 9.37609 17.8571 9.50521 17.8571H19.2448Z" fill="#878787"/>
<g clip-path="url(#clip0_348_464)">
<path d="M29.8578 18.0622H29.795V17.9995H29.8202V18.0371H29.8578V18.0622Z" fill="#878787"/>
<path d="M29.8034 17.8027H29.5272V17.6855H29.8034V17.8027ZM29.5523 17.7776H29.7783V17.7107H29.5523V17.7776ZM29.6026 17.9032H29.5272V17.8278H29.6026V17.9032ZM29.5523 17.8781H29.5774V17.853H29.5523V17.8781ZM29.703 17.9032H29.6277V17.8278H29.703V17.9032ZM29.6528 17.8781H29.6779V17.853H29.6528V17.8781ZM29.8034 17.9032H29.7281V17.8278H29.8034V17.9032ZM29.7532 17.8781H29.7783V17.853H29.7532V17.8781ZM29.6026 17.9869H29.5272V17.9116H29.6026V17.9869ZM29.5523 17.9618H29.5774V17.9367H29.5523V17.9618ZM29.703 17.9869H29.6277V17.9116H29.703V17.9869ZM29.6528 17.9618H29.6779V17.9367H29.6528V17.9618Z" fill="#878787"/>
<path d="M29.7533 17.9517H29.7281V17.9116H29.7909V17.9367H29.7533V17.9517Z" fill="#878787"/>
<path d="M29.7001 18.0371H29.4854V17.6437H29.8453V17.9254H29.8202V17.6688H29.5105V18.012H29.7001V18.0371Z" fill="#878787"/>
<path d="M29.816 18.1375C29.7969 18.1375 29.7783 18.1319 29.7625 18.1213C29.7467 18.1107 29.7343 18.0957 29.7271 18.0781C29.7198 18.0605 29.7179 18.0412 29.7216 18.0225C29.7253 18.0038 29.7345 17.9867 29.7479 17.9732C29.7614 17.9597 29.7785 17.9506 29.7972 17.9469C29.8159 17.9431 29.8352 17.945 29.8528 17.9523C29.8704 17.9596 29.8854 17.972 29.896 17.9878C29.9066 18.0036 29.9122 18.0222 29.9122 18.0413C29.9122 18.0668 29.902 18.0912 29.884 18.1093C29.866 18.1273 29.8415 18.1375 29.816 18.1375V18.1375ZM29.816 17.9701C29.8019 17.9701 29.7882 17.9743 29.7765 17.9821C29.7648 17.9899 29.7556 18.001 29.7503 18.014C29.7449 18.027 29.7435 18.0413 29.7462 18.0551C29.749 18.069 29.7557 18.0816 29.7657 18.0916C29.7756 18.1015 29.7883 18.1083 29.8021 18.1111C29.8159 18.1138 29.8302 18.1124 29.8432 18.107C29.8562 18.1016 29.8673 18.0925 29.8751 18.0808C29.883 18.0691 29.8871 18.0553 29.8871 18.0413C29.8871 18.0224 29.8796 18.0043 29.8663 17.991C29.853 17.9776 29.8349 17.9701 29.816 17.9701V17.9701Z" fill="#878787"/>
</g>

</svg>
