<svg width="30" height="30" viewBox="0 0 30 30" fill="none" xmlns="http://www.w3.org/2000/svg">
<path d="M3.75 12.5L6.25 10M6.25 10L15 1.25L23.75 10M6.25 10V22.5C6.25 22.8315 6.3817 23.1495 6.61612 23.3839C6.85054 23.6183 7.16848 23.75 7.5 23.75H11.25M23.75 10L26.25 12.5M23.75 10V22.5C23.75 22.8315 23.6183 23.1495 23.3839 23.3839C23.1495 23.6183 22.8315 23.75 22.5 23.75H18.75M11.25 23.75C11.5815 23.75 11.8995 23.6183 12.1339 23.3839C12.3683 23.1495 12.5 22.8315 12.5 22.5V17.5C12.5 17.1685 12.6317 16.8505 12.8661 16.6161C13.1005 16.3817 13.4185 16.25 13.75 16.25H16.25C16.5815 16.25 16.8995 16.3817 17.1339 16.6161C17.3683 16.8505 17.5 17.1685 17.5 17.5V22.5C17.5 22.8315 17.6317 23.1495 17.8661 23.3839C18.1005 23.6183 18.4185 23.75 18.75 23.75M11.25 23.75H18.75" stroke="#878787" stroke-width="2" stroke-linecap="round" stroke-linejoin="round"/>
</svg>
