<svg width="26" height="31" viewBox="0 0 26 31" fill="none" xmlns="http://www.w3.org/2000/svg">
<g filter="url(#filter0_dd_19_97)">
<path d="M18.657 16.657L14.414 20.9C14.2284 21.0858 14.0081 21.2331 13.7656 21.3336C13.523 21.4342 13.2631 21.4859 13.0005 21.4859C12.738 21.4859 12.478 21.4342 12.2354 21.3336C11.9929 21.2331 11.7726 21.0858 11.587 20.9L7.343 16.657C6.22422 15.5382 5.46234 14.1127 5.15369 12.5609C4.84504 11.009 5.00349 9.40053 5.60901 7.93874C6.21452 6.47696 7.2399 5.22755 8.55548 4.34852C9.87107 3.46949 11.4178 3.00031 13 3.00031C14.5822 3.00031 16.1289 3.46949 17.4445 4.34852C18.7601 5.22755 19.7855 6.47696 20.391 7.93874C20.9965 9.40053 21.155 11.009 20.8463 12.5609C20.5377 14.1127 19.7758 15.5382 18.657 16.657V16.657Z" stroke="#3585DB" stroke-width="2" stroke-linecap="round" stroke-linejoin="round"/>
<path d="M16 11C16 11.7956 15.6839 12.5587 15.1213 13.1213C14.5587 13.6839 13.7956 14 13 14C12.2044 14 11.4413 13.6839 10.8787 13.1213C10.3161 12.5587 10 11.7956 10 11C10 10.2044 10.3161 9.44129 10.8787 8.87868C11.4413 8.31607 12.2044 8 13 8C13.7956 8 14.5587 8.31607 15.1213 8.87868C15.6839 9.44129 16 10.2044 16 11V11Z" stroke="#3585DB" stroke-width="2" stroke-linecap="round" stroke-linejoin="round"/>
</g>
<defs>
<filter id="filter0_dd_19_97" x="-3" y="0" width="32" height="32" filterUnits="userSpaceOnUse" color-interpolation-filters="sRGB">
<feFlood flood-opacity="0" result="BackgroundImageFix"/>
<feColorMatrix in="SourceAlpha" type="matrix" values="0 0 0 0 0 0 0 0 0 0 0 0 0 0 0 0 0 0 127 0" result="hardAlpha"/>
<feOffset dy="4"/>
<feGaussianBlur stdDeviation="2"/>
<feComposite in2="hardAlpha" operator="out"/>
<feColorMatrix type="matrix" values="0 0 0 0 0 0 0 0 0 0 0 0 0 0 0 0 0 0 0.25 0"/>
<feBlend mode="normal" in2="BackgroundImageFix" result="effect1_dropShadow_19_97"/>
<feColorMatrix in="SourceAlpha" type="matrix" values="0 0 0 0 0 0 0 0 0 0 0 0 0 0 0 0 0 0 127 0" result="hardAlpha"/>
<feOffset dy="4"/>
<feGaussianBlur stdDeviation="2"/>
<feComposite in2="hardAlpha" operator="out"/>
<feColorMatrix type="matrix" values="0 0 0 0 0 0 0 0 0 0 0 0 0 0 0 0 0 0 0.25 0"/>
<feBlend mode="normal" in2="effect1_dropShadow_19_97" result="effect2_dropShadow_19_97"/>
<feBlend mode="normal" in="SourceGraphic" in2="effect2_dropShadow_19_97" result="shape"/>
</filter>
</defs>
</svg>
