<svg width="26" height="29" viewBox="0 0 26 29" fill="none" xmlns="http://www.w3.org/2000/svg">
<g filter="url(#filter0_d_231_471)">
<path d="M4 5C4 4.46957 4.21071 3.96086 4.58579 3.58579C4.96086 3.21071 5.46957 3 6 3H9.28C9.48979 3.00016 9.69422 3.0663 9.86436 3.18905C10.0345 3.3118 10.1617 3.48496 10.228 3.684L11.726 8.177C11.8019 8.40534 11.7929 8.65339 11.7007 8.87564C11.6085 9.0979 11.4393 9.27945 11.224 9.387L8.967 10.517C10.0733 12.9655 12.0345 14.9267 14.483 16.033L15.613 13.776C15.7205 13.5607 15.9021 13.3915 16.1244 13.2993C16.3466 13.2071 16.5947 13.1981 16.823 13.274L21.316 14.772C21.5152 14.8383 21.6885 14.9657 21.8112 15.136C21.934 15.3064 22.0001 15.511 22 15.721V19C22 19.5304 21.7893 20.0391 21.4142 20.4142C21.0391 20.7893 20.5304 21 20 21H19C10.716 21 4 14.284 4 6V5Z" fill="#3585DB"/>
</g>
<defs>
<filter id="filter0_d_231_471" x="-3" y="0" width="32" height="32" filterUnits="userSpaceOnUse" color-interpolation-filters="sRGB">
<feFlood flood-opacity="0" result="BackgroundImageFix"/>
<feColorMatrix in="SourceAlpha" type="matrix" values="0 0 0 0 0 0 0 0 0 0 0 0 0 0 0 0 0 0 127 0" result="hardAlpha"/>
<feOffset dy="4"/>
<feGaussianBlur stdDeviation="2"/>
<feComposite in2="hardAlpha" operator="out"/>
<feColorMatrix type="matrix" values="0 0 0 0 0 0 0 0 0 0 0 0 0 0 0 0 0 0 0.25 0"/>
<feBlend mode="normal" in2="BackgroundImageFix" result="effect1_dropShadow_231_471"/>
<feBlend mode="normal" in="SourceGraphic" in2="effect1_dropShadow_231_471" result="shape"/>
</filter>
</defs>
</svg>
