<svg width="34" height="34" viewBox="0 0 34 34" fill="none" xmlns="http://www.w3.org/2000/svg">
<path d="M27.2 27.2L20.4 20.4M22.6667 14.7333C22.6667 15.7751 22.4615 16.8068 22.0628 17.7693C21.6641 18.7318 21.0798 19.6064 20.3431 20.343C19.6064 21.0797 18.7319 21.6641 17.7693 22.0628C16.8068 22.4615 15.7752 22.6667 14.7334 22.6667C13.6916 22.6667 12.6599 22.4615 11.6974 22.0628C10.7349 21.6641 9.86035 21.0797 9.12367 20.343C8.38699 19.6064 7.80263 18.7318 7.40394 17.7693C7.00525 16.8068 6.80005 15.7751 6.80005 14.7333C6.80005 12.6293 7.63588 10.6114 9.12367 9.12361C10.6115 7.63582 12.6293 6.79999 14.7334 6.79999C16.8374 6.79999 18.8553 7.63582 20.3431 9.12361C21.8309 10.6114 22.6667 12.6293 22.6667 14.7333Z" stroke="white" stroke-width="2" stroke-linecap="round" stroke-linejoin="round"/>
</svg>
