<svg width="30" height="30" viewBox="0 0 30 30" fill="none" xmlns="http://www.w3.org/2000/svg">
<path d="M24.9173 14.2029C24.6332 14.2029 24.3606 14.09 24.1597 13.8891C23.9588 13.6881 23.8459 13.4156 23.8459 13.1314V10.1057C23.8459 5.82001 19.8859 2.39144 15.0173 2.39144C10.1488 2.39144 6.18876 5.86287 6.18876 10.1057V13.1314C6.18876 13.4156 6.07587 13.6881 5.87494 13.8891C5.67401 14.09 5.40149 14.2029 5.11733 14.2029C4.83317 14.2029 4.56064 14.09 4.35971 13.8891C4.15878 13.6881 4.0459 13.4156 4.0459 13.1314V10.1057C4.0459 4.65429 8.97447 0.214294 15.0173 0.214294C21.0602 0.214294 25.9888 4.65429 25.9888 10.1057V13.1314C25.9899 13.2725 25.963 13.4123 25.9095 13.5428C25.8561 13.6733 25.7772 13.7919 25.6775 13.8916C25.5778 13.9913 25.4592 14.0702 25.3287 14.1236C25.1982 14.1771 25.0583 14.204 24.9173 14.2029Z" fill="#3585DB"/>
<path d="M22.0202 24.2829C21.736 24.2829 21.4635 24.17 21.2626 23.969C21.0617 23.7681 20.9488 23.4956 20.9488 23.2114V13.0371C20.9577 12.759 21.0745 12.4952 21.2745 12.3016C21.4744 12.108 21.7419 11.9999 22.0202 12C25.7145 12 28.7231 14.7686 28.7231 18.1629C28.7231 21.5571 25.7145 24.2829 22.0202 24.2829ZM23.0916 14.22V22.0286C24.0297 21.8733 24.8864 21.4017 25.5194 20.6923C26.1525 19.9828 26.5238 19.0782 26.5716 18.1286C26.5257 17.1775 26.1552 16.2708 25.522 15.5596C24.8888 14.8484 24.0311 14.3756 23.0916 14.22ZM7.9802 24.2829C4.28592 24.2829 1.27734 21.5229 1.27734 18.1286C1.27734 14.7343 4.28592 12 7.9802 12C8.26436 12 8.53688 12.1129 8.73782 12.3138C8.93875 12.5147 9.05163 12.7873 9.05163 13.0714V23.2114C9.05163 23.4956 8.93875 23.7681 8.73782 23.969C8.53688 24.17 8.26436 24.2829 7.9802 24.2829ZM6.90877 14.22C5.96935 14.3756 5.1116 14.8484 4.47839 15.5596C3.84519 16.2708 3.47475 17.1775 3.42877 18.1286C3.47665 19.0782 3.84795 19.9828 4.48099 20.6923C5.11403 21.4017 5.97072 21.8733 6.90877 22.0286V14.22Z" fill="#3585DB"/>
<path d="M21.6688 27.7714H18.1203C17.8361 27.7714 17.5636 27.6586 17.3626 27.4576C17.1617 27.2567 17.0488 26.9842 17.0488 26.7C17.0488 26.4158 17.1617 26.1433 17.3626 25.9424C17.5636 25.7415 17.8361 25.6286 18.1203 25.6286H21.6688C22.2235 25.6286 22.7555 25.4082 23.1477 25.016C23.5399 24.6238 23.7603 24.0918 23.7603 23.5371V23.0657C23.7603 22.7816 23.8731 22.509 24.0741 22.3081C24.275 22.1072 24.5475 21.9943 24.8317 21.9943C25.1158 21.9943 25.3884 22.1072 25.5893 22.3081C25.7902 22.509 25.9031 22.7816 25.9031 23.0657V23.5371C25.9031 24.6602 25.457 25.7372 24.6629 26.5312C23.8688 27.3253 22.7918 27.7714 21.6688 27.7714Z" fill="#3585DB"/>
<path d="M16.2859 29.7857H14.1687C13.3913 29.7857 12.6456 29.4769 12.0959 28.9271C11.5462 28.3774 11.2373 27.6318 11.2373 26.8543V26.7343C11.2396 25.9583 11.5494 25.2149 12.0989 24.667C12.6484 24.1191 13.3928 23.8114 14.1687 23.8114H16.2859C17.0611 23.8114 17.8045 24.1194 18.3526 24.6675C18.9008 25.2157 19.2087 25.9591 19.2087 26.7343V26.8543C19.2087 27.6303 18.9011 28.3746 18.3532 28.9241C17.8053 29.4736 17.0619 29.7834 16.2859 29.7857ZM14.1859 25.9543C13.9782 25.9543 13.7789 26.0362 13.6313 26.1822C13.4836 26.3283 13.3996 26.5266 13.3973 26.7343V26.8543C13.3973 27.0634 13.4804 27.264 13.6283 27.4119C13.7762 27.5598 13.9767 27.6429 14.1859 27.6429H16.2859C16.4935 27.6406 16.6919 27.5565 16.8379 27.4089C16.984 27.2612 17.0659 27.062 17.0659 26.8543V26.7343C17.0659 26.5274 16.9837 26.329 16.8374 26.1827C16.6911 26.0365 16.4927 25.9543 16.2859 25.9543H14.1859Z" fill="#3585DB"/>
</svg>
