<svg width="16" height="16" viewBox="0 0 16 16" fill="none" xmlns="http://www.w3.org/2000/svg">
<path d="M8 13.3333C6.76232 13.3333 5.57534 12.8417 4.70017 11.9665C3.825 11.0913 3.33333 9.90435 3.33333 8.66667C3.33333 7.429 3.825 6.24201 4.70017 5.36684C5.57534 4.49167 6.76232 4.00001 8 4.00001C9.23768 4.00001 10.4247 4.49167 11.2998 5.36684C12.175 6.24201 12.6667 7.429 12.6667 8.66667C12.6667 9.90435 12.175 11.0913 11.2998 11.9665C10.4247 12.8417 9.23768 13.3333 8 13.3333ZM12.6867 4.92667L13.6333 3.98001C13.3333 3.64001 13.0333 3.33334 12.6933 3.04001L11.7467 4.00001C10.7133 3.16001 9.41333 2.66667 8 2.66667C6.4087 2.66667 4.88258 3.29881 3.75736 4.42403C2.63214 5.54925 2 7.07537 2 8.66667C2 10.258 2.63214 11.7841 3.75736 12.9093C4.88258 14.0345 6.4087 14.6667 8 14.6667C11.3333 14.6667 14 11.98 14 8.66667C14 7.25334 13.5067 5.95334 12.6867 4.92667ZM7.33333 9.33334H8.66667V5.33334H7.33333M10 0.666672H6V2.00001H10V0.666672Z" fill="#878787"/>
</svg>
